# xmcd CD database file
#
# Track frame offsets:
#	150
#	14982
#	24342
#	42177
#	48669
#	77126
#	90966
#	135680
#	158787
#	176318
#	186973
#	206007
#	283652
#
# Disc length: 4180 seconds
#
# Revision: 1
# Processed by: cddbd v1.5.1PL2 Copyright (c) Steve Scherf et al.
# Submitted via: CDex 1.51
#
DISCID=ad10520d
DTITLE=Elements - Notes of Healing
DYEAR=2002
DGENRE=New Age
TTITLE0=Reflections
TTITLE1=Hopes
TTITLE2=Anticipation
TTITLE3=Calm Waters
TTITLE4=Sweet Dreams
TTITLE5=Thoughts Of You
TTITLE6=Journey
TTITLE7=Clear Visions
TTITLE8=My Strength
TTITLE9=Fragile Morning Mist
TTITLE10=Wondering What Could Have Been
TTITLE11=Of Hope And Healing
TTITLE12=Mystery In The Dawn
EXTD=YEAR: 2002
EXTT0=
EXTT1=
EXTT2=
EXTT3=
EXTT4=
EXTT5=
EXTT6=
EXTT7=
EXTT8=
EXTT9=
EXTT10=
EXTT11=
EXTT12=
PLAYORDER=
